<?xml version="1.0" encoding="UTF-8"?>
<svg id="Layer_2" data-name="Layer 2" xmlns="http://www.w3.org/2000/svg" xmlns:xlink="http://www.w3.org/1999/xlink" viewBox="0 0 320 240">
  <defs>
    <style>
      .cls-1 {
        fill: none;
      }

      .cls-2 {
        fill: #f7c1c1;
      }

      .cls-3 {
        fill: #383735;
      }

      .cls-4 {
        fill: #7c4a28;
      }

      .cls-5 {
        fill: #fff;
      }

      .cls-6 {
        fill: #007bc7;
      }

      .cls-7 {
        fill: #6cf;
      }

      .cls-8 {
        fill: #0028a0;
      }

      .cls-9 {
        fill: #f9dddc;
      }

      .cls-10 {
        fill: #353535;
      }

      .cls-11 {
        clip-path: url(#clippath);
      }
    </style>
    <clipPath id="clippath">
      <rect class="cls-1" width="320" height="240"/>
    </clipPath>
  </defs>
  <g class="cls-11">
    <g>
      <g>
        <g>
          <polygon class="cls-7" points="138.32 160.69 145.73 161.2 149 154.52 140.97 140.6 137.7 147.28 130.28 146.77 138.32 160.69"/>
          <path class="cls-10" d="M145.73,162.2s-.05,0-.07,0l-7.42-.51c-.33-.02-.63-.21-.8-.5l-8.03-13.92c-.18-.32-.18-.72.02-1.03.2-.31.55-.48.92-.47l6.75.46,2.97-6.07c.16-.33.5-.55.86-.56.38-.02.72.18.9.5l8.03,13.92c.17.29.18.64.03.94l-3.27,6.68c-.17.34-.52.56-.9.56ZM138.92,159.73l6.21.43,2.74-5.59-6.83-11.83-2.44,4.99c-.18.37-.57.57-.97.56l-5.54-.38,6.83,11.83Z"/>
        </g>
        <path class="cls-10" d="M160.74,188.19c-.35,0-.68-.18-.87-.5l-21.61-37.43c-.28-.48-.11-1.09.37-1.37.48-.28,1.09-.11,1.37.37l21.61,37.43c.28.48.11,1.09-.37,1.37-.16.09-.33.13-.5.13Z"/>
      </g>
      <g>
        <g>
          <polygon class="cls-7" points="110.72 175.26 118.14 175.77 121.41 169.09 113.38 155.17 110.11 161.85 102.69 161.34 110.72 175.26"/>
          <path class="cls-10" d="M118.14,176.77s-.05,0-.07,0l-7.42-.51c-.33-.02-.63-.21-.8-.5l-8.03-13.91c-.18-.32-.18-.72.02-1.03.2-.31.55-.48.92-.47l6.75.46,2.97-6.07c.16-.33.5-.55.86-.56.36-.02.72.18.9.5l8.03,13.92c.17.29.18.64.03.94l-3.27,6.68c-.17.34-.52.56-.9.56ZM111.32,174.3l6.21.43,2.74-5.59-6.83-11.83-2.44,4.99c-.18.37-.57.58-.97.56l-5.54-.38,6.83,11.83Z"/>
        </g>
        <path class="cls-10" d="M133.15,202.76c-.35,0-.68-.18-.87-.5l-21.61-37.43c-.28-.48-.11-1.09.37-1.37.48-.28,1.09-.11,1.37.37l21.61,37.43c.28.48.11,1.09-.37,1.37-.16.09-.33.13-.5.13Z"/>
      </g>
      <g>
        <g>
          <polygon class="cls-7" points="126.44 171.3 133.86 171.81 137.13 165.13 129.09 151.22 125.83 157.9 118.41 157.39 126.44 171.3"/>
          <path class="cls-10" d="M133.86,172.81s-.05,0-.07,0l-7.42-.51c-.33-.02-.63-.21-.8-.5l-8.03-13.92c-.18-.32-.18-.72.02-1.03.2-.31.55-.48.92-.47l6.75.46,2.97-6.07c.16-.33.5-.55.86-.56.38-.02.71.18.9.5l8.03,13.92c.17.29.18.64.03.94l-3.27,6.68c-.17.34-.52.56-.9.56ZM127.04,170.34l6.22.43,2.74-5.6-6.83-11.83-2.44,4.99c-.18.37-.58.57-.97.56l-5.54-.38,6.83,11.83Z"/>
        </g>
        <path class="cls-10" d="M148.87,198.8c-.35,0-.68-.18-.87-.5l-21.61-37.43c-.28-.48-.11-1.09.37-1.37.48-.28,1.09-.11,1.37.37l21.61,37.43c.28.48.11,1.09-.37,1.37-.16.09-.33.13-.5.13Z"/>
      </g>
      <g>
        <g>
          <rect class="cls-4" x="71.9" y="118.69" width="8.16" height="31.83"/>
          <path class="cls-10" d="M80.06,151.52h-8.16c-.55,0-1-.45-1-1v-31.83c0-.55.45-1,1-1h8.16c.55,0,1,.45,1,1v31.83c0,.55-.45,1-1,1ZM72.9,149.52h6.16v-29.83h-6.16v29.83Z"/>
        </g>
        <g>
          <g>
            <polygon class="cls-4" points="48.99 146.77 40.34 146.77 59.18 114.95 67.83 114.95 48.99 146.77"/>
            <path class="cls-10" d="M48.99,147.77h-8.65c-.36,0-.69-.19-.87-.5-.18-.31-.17-.7,0-1l18.84-31.83c.18-.3.51-.49.86-.49h8.65c.36,0,.69.19.87.5.18.31.17.7,0,1l-18.84,31.83c-.18.3-.51.49-.86.49ZM42.1,145.77h6.32l17.66-29.83h-6.32l-17.66,29.83Z"/>
          </g>
          <g>
            <polygon class="cls-4" points="102.97 146.77 111.62 146.77 92.78 114.95 84.13 114.95 102.97 146.77"/>
            <path class="cls-10" d="M111.62,147.77h-8.65c-.35,0-.68-.19-.86-.49l-18.84-31.83c-.18-.31-.19-.69,0-1,.18-.31.51-.5.87-.5h8.65c.35,0,.68.19.86.49l18.84,31.83c.18.31.19.69,0,1-.18.31-.51.5-.87.5ZM103.54,145.77h6.32l-17.66-29.83h-6.32l17.66,29.83Z"/>
          </g>
        </g>
        <g>
          <path class="cls-8" d="M71.01,32.84c-26.34,0-47.7,21.35-47.7,47.7s21.35,47.7,47.7,47.7,47.7-21.35,47.7-47.7-21.35-47.7-47.7-47.7Z"/>
          <path class="cls-3" d="M71.01,129.23c-26.85,0-48.7-21.85-48.7-48.7s21.84-48.7,48.7-48.7,48.7,21.84,48.7,48.7-21.84,48.7-48.7,48.7ZM71.01,33.84c-25.75,0-46.7,20.95-46.7,46.7s20.95,46.7,46.7,46.7,46.7-20.95,46.7-46.7-20.95-46.7-46.7-46.7Z"/>
        </g>
        <g>
          <g>
            <path class="cls-6" d="M75.98,32.84c-26.34,0-47.7,21.35-47.7,47.7s21.35,47.7,47.7,47.7,47.7-21.35,47.7-47.7-21.35-47.7-47.7-47.7ZM75.98,118.69c-21.07,0-38.16-17.08-38.16-38.16s17.08-38.16,38.16-38.16,38.16,17.08,38.16,38.16-17.08,38.16-38.16,38.16Z"/>
            <path class="cls-10" d="M75.98,129.23c-26.85,0-48.7-21.85-48.7-48.7s21.84-48.7,48.7-48.7,48.7,21.84,48.7,48.7-21.84,48.7-48.7,48.7ZM75.98,33.84c-25.75,0-46.7,20.95-46.7,46.7s20.95,46.7,46.7,46.7,46.7-20.95,46.7-46.7-20.95-46.7-46.7-46.7ZM75.98,119.69c-21.59,0-39.16-17.57-39.16-39.16s17.57-39.16,39.16-39.16,39.16,17.57,39.16,39.16-17.57,39.16-39.16,39.16ZM75.98,43.38c-20.49,0-37.16,16.67-37.16,37.16s16.67,37.16,37.16,37.16,37.16-16.67,37.16-37.16-16.67-37.16-37.16-37.16Z"/>
          </g>
          <g>
            <path class="cls-5" d="M75.98,42.38c-21.07,0-38.16,17.08-38.16,38.16s17.08,38.16,38.16,38.16,38.16-17.08,38.16-38.16-17.08-38.16-38.16-38.16ZM75.98,107.24c-14.75,0-26.71-11.96-26.71-26.71s11.96-26.71,26.71-26.71,26.71,11.96,26.71,26.71-11.96,26.71-26.71,26.71Z"/>
            <path class="cls-10" d="M75.98,119.69c-21.59,0-39.16-17.57-39.16-39.16s17.57-39.16,39.16-39.16,39.16,17.57,39.16,39.16-17.57,39.16-39.16,39.16ZM75.98,43.38c-20.49,0-37.16,16.67-37.16,37.16s16.67,37.16,37.16,37.16,37.16-16.67,37.16-37.16-16.67-37.16-37.16-37.16ZM75.98,108.24c-15.28,0-27.71-12.43-27.71-27.71s12.43-27.71,27.71-27.71,27.71,12.43,27.71,27.71-12.43,27.71-27.71,27.71ZM75.98,54.82c-14.18,0-25.71,11.53-25.71,25.71s11.53,25.71,25.71,25.71,25.71-11.53,25.71-25.71-11.53-25.71-25.71-25.71Z"/>
          </g>
          <g>
            <path class="cls-6" d="M75.98,53.82c-14.75,0-26.71,11.96-26.71,26.71s11.96,26.71,26.71,26.71,26.71-11.96,26.71-26.71-11.96-26.71-26.71-26.71ZM75.98,96.56c-8.85,0-16.03-7.17-16.03-16.03s7.18-16.03,16.03-16.03,16.03,7.17,16.03,16.03-7.17,16.03-16.03,16.03Z"/>
            <path class="cls-10" d="M75.98,108.24c-15.28,0-27.71-12.43-27.71-27.71s12.43-27.71,27.71-27.71,27.71,12.43,27.71,27.71-12.43,27.71-27.71,27.71ZM75.98,54.82c-14.18,0-25.71,11.53-25.71,25.71s11.53,25.71,25.71,25.71,25.71-11.53,25.71-25.71-11.53-25.71-25.71-25.71ZM75.98,97.56c-9.39,0-17.03-7.64-17.03-17.03s7.64-17.03,17.03-17.03,17.03,7.64,17.03,17.03-7.64,17.03-17.03,17.03ZM75.98,65.51c-8.29,0-15.03,6.74-15.03,15.03s6.74,15.03,15.03,15.03,15.03-6.74,15.03-15.03-6.74-15.03-15.03-15.03Z"/>
          </g>
          <g>
            <path class="cls-5" d="M75.98,64.51c-8.85,0-16.03,7.17-16.03,16.03s7.18,16.03,16.03,16.03,16.03-7.17,16.03-16.03-7.17-16.03-16.03-16.03Z"/>
            <path class="cls-10" d="M75.98,97.56c-9.39,0-17.03-7.64-17.03-17.03s7.64-17.03,17.03-17.03,17.03,7.64,17.03,17.03-7.64,17.03-17.03,17.03ZM75.98,65.51c-8.29,0-15.03,6.74-15.03,15.03s6.74,15.03,15.03,15.03,15.03-6.74,15.03-15.03-6.74-15.03-15.03-15.03Z"/>
          </g>
          <g>
            <circle class="cls-6" cx="75.98" cy="80.53" r="6.71"/>
            <path class="cls-10" d="M75.98,88.24c-4.25,0-7.71-3.46-7.71-7.71s3.46-7.71,7.71-7.71,7.71,3.46,7.71,7.71-3.46,7.71-7.71,7.71ZM75.98,74.82c-3.15,0-5.71,2.56-5.71,5.71s2.56,5.71,5.71,5.71,5.71-2.56,5.71-5.71-2.56-5.71-5.71-5.71Z"/>
          </g>
        </g>
        <g>
          <g>
            <polygon class="cls-7" points="126.3 27.88 119.84 26.62 118.58 20.16 128.63 10.1 129.9 16.56 136.35 17.82 126.3 27.88"/>
            <path class="cls-10" d="M126.3,28.88c-.06,0-.13,0-.19-.02l-6.46-1.26c-.4-.08-.71-.39-.79-.79l-1.26-6.46c-.06-.33.04-.66.27-.9l10.06-10.06c.26-.26.64-.36,1-.25.35.11.62.4.69.76l1.13,5.8,5.8,1.13c.36.07.66.34.76.69.11.35.01.74-.25,1l-10.06,10.06c-.19.19-.44.29-.71.29ZM120.69,25.76l5.28,1.03,8.35-8.35-4.62-.9c-.4-.08-.71-.39-.79-.79l-.9-4.62-8.35,8.35,1.03,5.28Z"/>
          </g>
          <path class="cls-10" d="M101.06,46.4c-.26,0-.51-.1-.71-.29-.39-.39-.39-1.02,0-1.41l27.05-27.05c.39-.39,1.02-.39,1.41,0s.39,1.02,0,1.41l-27.05,27.05c-.2.2-.45.29-.71.29Z"/>
        </g>
        <g>
          <g>
            <polygon class="cls-7" points="27.43 34.83 24.54 40.74 17.98 40.29 10.87 27.98 17.43 28.43 20.32 22.52 27.43 34.83"/>
            <path class="cls-10" d="M24.54,41.74s-.05,0-.07,0l-6.57-.45c-.33-.02-.63-.21-.8-.5l-7.11-12.32c-.18-.32-.18-.72.02-1.03.2-.31.55-.49.92-.47l5.89.4,2.6-5.31c.16-.33.5-.55.86-.56.36-.01.71.18.9.5l7.11,12.32c.17.29.18.64.03.94l-2.89,5.91c-.17.34-.52.56-.9.56ZM18.58,39.33l5.36.37,2.36-4.83-5.91-10.23-2.07,4.22c-.18.36-.57.58-.97.56l-4.69-.32,5.91,10.23Z"/>
          </g>
          <path class="cls-10" d="M37.83,64.75c-.35,0-.68-.18-.87-.5L17.83,31.12c-.28-.48-.11-1.09.37-1.37.48-.28,1.09-.11,1.37.37l19.13,33.13c.28.48.11,1.09-.37,1.37-.16.09-.33.13-.5.13Z"/>
        </g>
        <g>
          <g>
            <polygon class="cls-7" points="118.44 83.7 118.56 90.28 124.7 92.65 136.35 84.49 130.21 82.13 130.09 75.55 118.44 83.7"/>
            <path class="cls-10" d="M124.7,93.65c-.12,0-.24-.02-.36-.07l-6.14-2.37c-.38-.15-.63-.51-.64-.91l-.12-6.58c0-.33.15-.65.43-.84l11.65-8.16c.3-.21.7-.24,1.03-.07.33.17.54.5.55.87l.11,5.91,5.51,2.12c.34.13.59.44.63.81.04.37-.12.73-.42.94l-11.65,8.16c-.17.12-.37.18-.57.18ZM119.55,89.59l5.02,1.93,9.68-6.77-4.39-1.69c-.38-.15-.63-.51-.64-.91l-.09-4.7-9.68,6.77.1,5.38Z"/>
          </g>
          <path class="cls-10" d="M96.8,106.52c-.32,0-.63-.15-.82-.43-.32-.45-.21-1.08.25-1.39l31.34-21.94c.45-.32,1.08-.21,1.39.25.32.45.21,1.08-.25,1.39l-31.34,21.94c-.17.12-.37.18-.57.18Z"/>
        </g>
      </g>
      <g>
        <g>
          <path class="cls-9" d="M153.84,114.96s-5.38,3.97-7.11,6.24,2.51,6.83,5.31,6.41,1.8-12.65,1.8-12.65Z"/>
          <path class="cls-10" d="M151.67,128.64c-2.12,0-4.44-1.81-5.58-3.73-.96-1.61-1.01-3.19-.16-4.31,1.79-2.36,7.09-6.28,7.31-6.44.29-.22.68-.25,1.01-.11.33.15.55.47.58.83.4,4.92.59,13.25-2.65,13.72-.17.03-.34.04-.52.04ZM152.96,116.88c-1.69,1.32-4.36,3.5-5.43,4.92-.48.63.04,1.67.29,2.09.95,1.6,2.89,2.91,4.08,2.73.77-.32,1.33-4.41,1.07-9.74Z"/>
        </g>
        <g>
          <path class="cls-9" d="M161.31,89.86s-6.06,5.31-7.23,22.89c-.23,3.46-1.07,6.86-2.53,10.01-1.95,4.2-4.46,10.45-4.76,15.35-.5,8.14,2.99,19.08,25.33,23.74,22.34,4.65,39.69-2.79,39.69-2.79,0,0,14.53-46.31,14.76-45.15.23,1.16-29.32-30.74-29.32-30.74l-35.93,6.69Z"/>
          <path class="cls-10" d="M187.15,164.39c-4.67,0-9.8-.43-15.25-1.57-22.57-4.7-26.66-16.07-26.12-24.78.31-5.01,2.81-11.31,4.85-15.71,1.39-3,2.22-6.25,2.44-9.66,1.19-17.79,7.31-23.35,7.57-23.58.14-.12.3-.2.48-.23l35.93-6.69c.34-.06.68.05.92.3,10.57,11.41,26.63,28.55,28.87,30.44.35.11.63.41.7.78.07.33-.05.69-.28.93-1.22,2.77-9.26,27.97-14.51,44.71-.09.28-.29.5-.56.62-.54.23-10.52,4.42-25.04,4.42ZM161.8,90.79c-.97,1.05-5.71,6.87-6.72,22.03-.24,3.66-1.13,7.14-2.62,10.37-1.97,4.24-4.38,10.28-4.67,14.99-.71,11.52,7.54,19.16,24.53,22.7,19.87,4.14,35.92-1.5,38.68-2.57.7-2.22,3.85-12.24,7.02-22.15,4.57-14.26,6.36-19.8,7.31-21.94-1.66-1.4-5.29-5.21-14.36-14.87-6.24-6.65-12.51-13.39-14.08-15.09l-35.08,6.53Z"/>
        </g>
        <g>
          <polyline class="cls-9" points="169.63 154.4 173.97 174.25 214.31 167.43 210.58 149.12"/>
          <path class="cls-10" d="M173.97,175.25c-.46,0-.87-.32-.98-.79l-4.34-19.86c-.12-.54.22-1.07.76-1.19.54-.12,1.07.22,1.19.76l4.14,18.93,38.38-6.49-3.52-17.29c-.11-.54.24-1.07.78-1.18.54-.11,1.07.24,1.18.78l3.72,18.31c.05.27,0,.54-.16.76s-.39.38-.66.42l-40.34,6.83c-.06,0-.11.01-.17.01Z"/>
        </g>
        <path class="cls-10" d="M156.83,140.5c-.46,0-.87-.32-.98-.79-.09-.42-.42-1.49-1.47-2.24-.87-.62-1.79-.7-2.25-.69h-.02c-.54,0-.99-.44-1-.98,0-.55.43-1.01.98-1.02.72,0,2.11.11,3.44,1.07,1.61,1.15,2.11,2.79,2.26,3.44.12.54-.23,1.07-.76,1.19-.07.02-.14.02-.21.02Z"/>
        <g>
          <path class="cls-3" d="M191.97,124.51s-6.37-7.13-8.73-15.12c-.71-2.41-2.66-4.25-5.07-4.95-5.95-1.72-17-5.9-26.12-14.88-13.76-13.55-3.1-21.1-3.1-21.1,0,0-5.17-9.41,6.41-19.44,0,0-.1,13.24,19.86,12.2,19.96-1.03,45.82-6.93,58.33,17.58,0,0,17.69,3.93,17.58,22.75-.1,18.82-9.77,49.7-37.99,60.14,0,0-6.02,1.42-15.18-1.64-1.49-.5-2.35-2.06-1.94-3.58,1.45-5.3,4.36-17.61,2.86-26.17l-6.92-5.79Z"/>
          <path class="cls-3" d="M209.27,163.02c-2.75,0-6.75-.4-11.62-2.03-2-.67-3.14-2.78-2.58-4.8,1.33-4.86,4.24-16.96,2.9-25.37l-6.64-5.55s-.07-.06-.1-.1c-.27-.3-6.54-7.39-8.94-15.51-.61-2.06-2.25-3.66-4.39-4.28-5.92-1.71-17.23-5.95-26.55-15.13-5.22-5.14-7.67-10.08-7.3-14.7.31-3.88,2.56-6.38,3.68-7.4-.98-2.56-3.16-11.13,6.97-19.91.3-.26.72-.32,1.07-.15.36.16.58.52.58.92,0,.04.04,3.96,3.35,7.1,3.24,3.08,8.45,4.45,15.45,4.09,2.58-.13,5.22-.35,8.02-.57,18.67-1.5,39.81-3.2,51.05,18.3,2.88.82,18,5.96,17.9,23.61-.09,16.21-8.28,49.83-38.64,61.07-.04.01-.08.03-.12.04-.12.03-1.59.36-4.1.36ZM192.67,123.79l6.87,5.74c.18.15.3.36.34.59,1.55,8.82-1.5,21.54-2.88,26.6-.27,1,.29,2.04,1.29,2.37,8.3,2.78,13.98,1.75,14.58,1.63,29.28-10.88,37.18-43.47,37.27-59.18.1-17.81-16.63-21.73-16.8-21.77-.29-.06-.54-.26-.67-.52-10.58-20.73-31.16-19.07-49.31-17.61-2.81.23-5.46.44-8.08.57-7.6.4-13.32-1.18-16.97-4.67-2.34-2.24-3.29-4.77-3.68-6.49-9,8.83-4.98,16.59-4.8,16.93.24.44.11,1-.3,1.29-.03.02-3.16,2.32-3.48,6.49-.31,3.99,1.95,8.39,6.71,13.08,9,8.87,19.96,12.97,25.7,14.63,2.8.81,4.95,2.92,5.75,5.63,2.17,7.32,7.9,14.03,8.47,14.69Z"/>
        </g>
        <g>
          <path class="cls-9" d="M191.35,149.12c-5.61,0-7.6-7.12-7.6-15.9s1.99-15.9,7.6-15.9,12.72,7.12,12.72,15.9c0,5.99-3.3,11.2-7.19,13.91"/>
          <path class="cls-10" d="M191.35,150.12c-5.55,0-8.6-6-8.6-16.9s3.05-16.9,8.6-16.9c6.21,0,13.72,7.54,13.72,16.9,0,5.72-2.99,11.5-7.61,14.73-.45.32-1.08.21-1.39-.25s-.21-1.08.25-1.39c3.12-2.18,6.76-6.92,6.76-13.09,0-8.03-6.45-14.9-11.72-14.9-5.74,0-6.6,9.34-6.6,14.9s.86,14.9,6.6,14.9c.55,0,1,.45,1,1s-.45,1-1,1Z"/>
        </g>
        <g>
          <path class="cls-7" d="M116.57,223.9s-1.6-12.34,6.58-25.18c5.8-9.11,16.53-18.46,36.24-23.84,2.41-.66,4.72-1.26,6.95-1.82,41.81-10.51,53.4-4.85,53.4-4.85l31.39,27.77c.1,1.91.06,3.99-.21,6.2-1.21,10.26-6.48,17.71-9.93,21.72"/>
          <path class="cls-3" d="M116.57,224.9c-.5,0-.92-.37-.99-.87-.07-.52-1.55-12.85,6.72-25.85,7.28-11.42,19.67-19.59,36.82-24.27,2.32-.63,4.66-1.25,6.97-1.83,41.69-10.48,53.6-5.01,54.09-4.77.08.04.16.09.22.15l31.39,27.77c.2.18.32.43.34.7.11,2.13.04,4.27-.21,6.37-.93,7.91-4.45,15.6-10.16,22.25-.36.42-.99.47-1.41.11-.42-.36-.47-.99-.11-1.41,5.45-6.35,8.81-13.67,9.69-21.18.22-1.85.3-3.74.22-5.62l-30.95-27.38c-1.24-.49-13.9-4.77-52.62,4.96-2.29.58-4.62,1.19-6.93,1.82-16.66,4.55-28.66,12.43-35.66,23.42-7.89,12.39-6.44,24.4-6.43,24.52.07.55-.31,1.05-.86,1.12-.04,0-.09,0-.13,0Z"/>
        </g>
        <g>
          <g>
            <path class="cls-9" d="M271.42,164.79s-16.86-23.04-25.01-49.49c0,0-12.2.43-17.08,1.2-8.56,1.98-5.02-5.83,1.89-7.62,6.9-1.78,7.86-.97,7.86-.97,0,0-11.42-7.61-12.35-8.77l-3.01,1.59s1.79,1.76,1.09,3.01c-1.13,2.02-5.24,2.42-7.76-2.33-2.06-3.88,2.06-6.4,2.06-6.4,0,0-2.1-.64-.71-6.67.22-.97.71-1.89,1.46-2.55.73-.65,1.83-1.2,3.4-1.06,0,0,1.71-4.34,7.45-2.33,0,0,3.41-3.02,10.39-.31,6.98,2.71,11.09,6.52,13.57,9.46,2.48,2.95,5.97,8.84,6.98,11.17,0,0,42.46,49,45.15,63.26.46,2.42-7.93,18.57-16.19,17.78-9.54-.91-19.18-18.98-19.18-18.98Z"/>
            <path class="cls-10" d="M291.18,184.8c-.23,0-.45-.01-.67-.03-9.77-.93-19.2-18.08-19.93-19.45-.94-1.3-16.9-23.64-24.89-49-2.74.11-12.13.52-16.2,1.16-4.84,1.12-5.88-.88-6.11-1.79-.68-2.76,3.08-6.62,7.59-7.78,1.55-.4,3.28-.79,4.81-1.01-3.15-2.13-7.52-5.13-9.21-6.55l-1.31.7c.55.84,1.05,2.05.42,3.18-.68,1.21-2.03,1.95-3.64,1.94-2.3-.03-4.44-1.59-5.87-4.29-1.61-3.04-.11-5.57,1.42-6.97-.62-1.02-1.04-3-.17-6.79.28-1.24.9-2.3,1.77-3.08.97-.86,2.16-1.31,3.49-1.33.8-1.28,3.09-3.87,7.86-2.41,1.26-.8,4.89-2.48,10.92-.13,5.69,2.21,10.39,5.49,13.98,9.75,2.52,2.99,5.96,8.8,7.07,11.27,2.81,3.25,42.61,49.46,45.28,63.61.39,2.07-3.11,9.12-7.36,13.78-3.13,3.43-6.31,5.22-9.25,5.22ZM246.41,114.3c.44,0,.83.29.96.71,8,25.98,24.69,48.97,24.86,49.19.03.04.05.08.08.12.09.18,9.5,17.61,18.39,18.46,2.92.28,5.81-2.01,7.72-3.99,4.65-4.8,7.53-11.55,7.39-12.62-2.61-13.83-44.5-62.29-44.92-62.78-.07-.08-.12-.16-.16-.26-.99-2.29-4.45-8.1-6.83-10.92-3.37-4-7.8-7.09-13.17-9.18-6.25-2.43-9.25.02-9.37.13-.27.23-.65.31-.99.19-4.78-1.68-6.13,1.61-6.18,1.75-.16.41-.57.67-1.02.63-1.04-.09-1.94.18-2.65.81-.55.49-.96,1.21-1.15,2.03-1.02,4.46.02,5.43.12,5.52.33.14.57.44.61.8.05.39-.13.77-.47.98-.33.21-3.25,2.14-1.69,5.08,1.53,2.88,3.4,3.21,4.13,3.22.84-.01,1.55-.34,1.87-.91.2-.35-.42-1.32-.92-1.81-.23-.22-.33-.54-.29-.86.05-.32.24-.59.52-.74l3.01-1.59c.43-.23.95-.11,1.25.26.58.69,6.61,4.89,12.11,8.56.04.03.08.05.11.08.4.34.47.94.15,1.36-.3.4-.85.51-1.29.27-.21-.06-1.69-.34-7.12,1.06-4.05,1.05-6.44,4.15-6.14,5.37.13.54,1.37.86,3.78.31,4.96-.79,16.78-1.21,17.28-1.23.01,0,.02,0,.04,0ZM238.61,108.8h0ZM219.4,94.06s0,0,0,0t0,0ZM219.39,94.06h0s0,0,0,0ZM219.39,94.06s0,0,0,0c0,0,0,0,0,0Z"/>
          </g>
          <g>
            <path class="cls-9" d="M219.1,95.02s2.91-2.52,5.94-2.21,7.85,2.6,7.85,2.6"/>
            <path class="cls-10" d="M232.88,96.41c-.14,0-.29-.03-.43-.1-.05-.02-4.71-2.22-7.52-2.51-2.56-.26-5.16,1.95-5.18,1.97-.42.36-1.05.31-1.41-.1-.36-.42-.31-1.05.1-1.41.13-.11,3.29-2.8,6.69-2.45,3.16.32,7.97,2.6,8.18,2.7.5.24.71.83.47,1.33-.17.36-.53.57-.9.57Z"/>
          </g>
          <g>
            <path class="cls-9" d="M223.25,84.74s5.58,1.28,10.39,4.03"/>
            <path class="cls-10" d="M233.64,89.77c-.17,0-.34-.04-.5-.13-4.62-2.64-10.07-3.91-10.12-3.93-.54-.12-.87-.66-.75-1.2s.66-.88,1.2-.75c.23.05,5.79,1.34,10.67,4.14.48.27.65.89.37,1.36-.19.32-.52.5-.87.5Z"/>
          </g>
          <path class="cls-10" d="M227.96,94.51c-.11,0-.23-.02-.34-.06-1.48-.53-2.82-1.17-3.72-1.63-.32.63-.75,1.02-.83,1.09-.42.36-1.05.32-1.41-.09-.36-.41-.32-1.04.08-1.41.15-.14.53-.58.51-1.04-.01-.36.17-.71.49-.89.31-.19.7-.19,1.02,0,.02.01,2.12,1.23,4.54,2.1.52.19.79.76.6,1.28-.15.41-.53.66-.94.66Z"/>
          <g>
            <path class="cls-9" d="M230.7,82.41s4.19,1.09,6.98,2.33"/>
            <path class="cls-10" d="M237.68,85.74c-.14,0-.27-.03-.41-.09-2.69-1.19-6.79-2.26-6.83-2.27-.53-.14-.86-.68-.72-1.22.14-.53.68-.86,1.22-.72.17.04,4.3,1.12,7.14,2.38.5.22.73.82.51,1.32-.17.37-.53.59-.92.59Z"/>
          </g>
          <g>
            <path class="cls-9" d="M223.72,100.74s-1.59-.95-2.95-1.34"/>
            <path class="cls-10" d="M223.72,101.74c-.17,0-.35-.05-.51-.14-.01,0-1.5-.89-2.71-1.23-.53-.15-.84-.71-.69-1.24.15-.53.71-.84,1.24-.69,1.47.42,3.12,1.4,3.18,1.44.47.28.63.9.35,1.37-.19.31-.52.49-.86.49Z"/>
          </g>
        </g>
        <g>
          <path class="cls-6" d="M137.69,223.9l-14.54-25.18-5.16-8.94c4.1-4.56,10.63-10.78,19.99-16.15,9.13-5.23,17.59-7.71,23.51-8.97,1.62,2.8,3.23,5.59,4.85,8.39,9.78,16.95,19.57,33.9,29.36,50.85"/>
          <path class="cls-10" d="M137.69,224.9c-.35,0-.68-.18-.87-.5l-19.71-34.12c-.22-.38-.17-.85.12-1.17,5.85-6.5,12.66-12,20.24-16.34,7.41-4.25,15.42-7.3,23.8-9.08.43-.09.86.1,1.07.48l4.85,8.39c9.78,16.95,19.57,33.9,29.36,50.85.28.48.11,1.09-.37,1.37-.48.28-1.09.11-1.37-.37-9.79-16.95-19.57-33.9-29.36-50.85l-4.48-7.76c-7.92,1.75-15.49,4.68-22.51,8.71-7.19,4.12-13.66,9.3-19.26,15.41l19.34,33.49c.28.48.11,1.09-.37,1.37-.16.09-.33.13-.5.13Z"/>
        </g>
        <g>
          <path class="cls-9" d="M285.27,167.19s-3.37-.97-8.51-2.28c1.3,3.49,2.57,8.21,2.77,13.89.28,8.2-1.8,14.85-3.69,19.21,23.63-.25,27.34-6.8,30.84-12.23,5.89-9.12-.66-22.4-.66-22.4"/>
          <path class="cls-10" d="M275.84,199.01c-.33,0-.65-.17-.83-.45-.19-.28-.22-.64-.08-.95,2.62-6.02,3.83-12.34,3.61-18.78-.16-4.62-1.07-9.19-2.7-13.57-.13-.35-.06-.74.19-1.02.25-.28.63-.39.99-.3,5.09,1.29,8.5,2.28,8.54,2.29.53.15.84.71.68,1.24s-.71.83-1.24.68c-.03,0-2.63-.76-6.67-1.8,1.32,4.03,2.06,8.2,2.21,12.42.21,6.23-.86,12.35-3.18,18.22,21.25-.49,24.98-6.28,28.27-11.4l.22-.35c5.5-8.53-.66-21.29-.72-21.42-.24-.5-.04-1.09.46-1.34.49-.25,1.09-.04,1.34.45.28.56,6.73,13.9.61,23.39l-.22.34c-3.46,5.39-7.77,12.09-31.45,12.34h-.01Z"/>
        </g>
        <g>
          <path class="cls-7" d="M247.48,196.28c11.08,2.47,24.83,2.54,32.03,2.47,1.95-4.49,4.1-11.36,3.81-19.81-.2-5.85-1.51-10.72-2.85-14.32-12.6-3.2-35.46-8.34-46.11-6.48-15.12,2.64-16.3,11.91-16.3,11.91"/>
          <path class="cls-3" d="M276.51,199.77c-12.1,0-21.69-.82-29.24-2.51-.54-.12-.88-.65-.76-1.19.12-.54.66-.88,1.19-.76,7.89,1.76,18.07,2.56,31.14,2.45,2.52-6.04,3.69-12.36,3.47-18.79-.16-4.6-1.04-9.14-2.61-13.52-12.67-3.2-34.87-8.13-45.18-6.33-14.13,2.47-15.43,10.71-15.48,11.06-.08.54-.57.93-1.12.86-.54-.07-.93-.57-.86-1.11.05-.41,1.45-10.04,17.12-12.77,10.82-1.89,33.8,3.26,46.53,6.5.32.08.58.31.69.62,1.76,4.73,2.74,9.65,2.92,14.64.24,6.94-1.07,13.75-3.89,20.25-.16.36-.51.6-.91.6-1.02.01-2.02.02-3.01.02Z"/>
        </g>
        <circle class="cls-2" cx="169.69" cy="126.98" r="9.33"/>
        <g>
          <ellipse class="cls-10" cx="162.86" cy="116.19" rx="6.13" ry="2.18" transform="translate(8.48 243.43) rotate(-75)"/>
          <path class="cls-10" d="M161.5,123.15c-.17,0-.33-.02-.48-.06-.71-.19-1.59-.87-1.76-3.02-.11-1.34.08-3,.54-4.69.45-1.69,1.12-3.23,1.88-4.33,1.22-1.78,2.33-1.92,3.03-1.74.71.19,1.59.87,1.76,3.02.11,1.34-.08,3-.54,4.69h0c-.45,1.69-1.12,3.23-1.88,4.33-.98,1.42-1.87,1.8-2.56,1.8ZM164.18,111.26c-.46.22-1.67,1.71-2.46,4.62-.78,2.92-.47,4.81-.18,5.23.46-.22,1.67-1.71,2.46-4.62s.47-4.81.18-5.23ZM164.97,116.75h0,0Z"/>
        </g>
      </g>
    </g>
  </g>
</svg>