<?xml version="1.0" encoding="UTF-8" standalone="no"?>
<!-- Created with Inkscape (http://www.inkscape.org/) -->

<svg
   xmlns:dc="http://purl.org/dc/elements/1.1/"
   xmlns:cc="http://creativecommons.org/ns#"
   xmlns:rdf="http://www.w3.org/1999/02/22-rdf-syntax-ns#"
   xmlns:svg="http://www.w3.org/2000/svg"
   xmlns="http://www.w3.org/2000/svg"
   xmlns:sodipodi="http://sodipodi.sourceforge.net/DTD/sodipodi-0.dtd"
   xmlns:inkscape="http://www.inkscape.org/namespaces/inkscape"
   width="81.999878mm"
   height="12.59212mm"
   viewBox="0 0 81.999878 12.59212"
   version="1.1"
   id="svg2731"
   inkscape:version="0.92.3 (2405546, 2018-03-11)"
   sodipodi:docname="J Trust Bank logo.svg">
  <defs
     id="defs2725">
    <clipPath
       clipPathUnits="userSpaceOnUse"
       id="clipPath2634">
      <path
         d="M 0,0 H 595.276 V 841.89 H 0 Z"
         id="path2632"
         inkscape:connector-curvature="0" />
    </clipPath>
    <clipPath
       clipPathUnits="userSpaceOnUse"
       id="clipPath2588">
      <path
         d="M 0,0 H 595.276 V 841.89 H 0 Z"
         id="path2586"
         inkscape:connector-curvature="0" />
    </clipPath>
  </defs>
  <sodipodi:namedview
     id="base"
     pagecolor="#ffffff"
     bordercolor="#666666"
     borderopacity="1.0"
     inkscape:pageopacity="0.0"
     inkscape:pageshadow="2"
     inkscape:zoom="0.35"
     inkscape:cx="-809.32531"
     inkscape:cy="-21.91816"
     inkscape:document-units="mm"
     inkscape:current-layer="layer1"
     showgrid="false"
     fit-margin-top="0"
     fit-margin-left="0"
     fit-margin-right="0"
     fit-margin-bottom="0"
     inkscape:window-width="1366"
     inkscape:window-height="705"
     inkscape:window-x="-8"
     inkscape:window-y="-8"
     inkscape:window-maximized="1" />
  <metadata
     id="metadata2728">
    <rdf:RDF>
      <cc:Work
         rdf:about="">
        <dc:format>image/svg+xml</dc:format>
        <dc:type
           rdf:resource="http://purl.org/dc/dcmitype/StillImage" />
        <dc:title></dc:title>
      </cc:Work>
    </rdf:RDF>
  </metadata>
  <g
     inkscape:label="Layer 1"
     inkscape:groupmode="layer"
     id="layer1"
     transform="translate(-197.12506,-130.44203)">
    <g
       id="g3411">
      <g
         id="g2582"
         transform="matrix(0.35277777,0,0,-0.35277777,87.643513,409.30965)">
        <g
           clip-path="url(#clipPath2588)"
           id="g2584">
          <g
             transform="translate(477.2214,779.183)"
             id="g2590">
            <path
               inkscape:connector-curvature="0"
               id="path2592"
               style="fill:#000000;fill-opacity:1;fill-rule:nonzero;stroke:none"
               d="M 0,0 V 4.216 H 6.38 C 8.361,4.216 8.478,3.225 8.478,2.193 8.478,1.028 8.253,0 6.38,0 Z m 0,-2.567 h 6.779 c 0.428,-10e-4 2.366,0.18 2.366,-2.206 0,-2.392 -1.558,-2.266 -2.241,-2.266 H 0 Z m -2.948,9.48 V -9.736 H 7.62 c 2.516,0 4.618,0.84 4.618,4.53 -0.017,2.249 -0.789,3.72 -3.524,4.092 0,0 2.911,0.247 2.911,3.749 0,3.915 -2.396,4.278 -3.917,4.278 z" />
          </g>
          <g
             transform="translate(407.3437,777.5543)"
             id="g2594">
            <path
               inkscape:connector-curvature="0"
               id="path2596"
               style="fill:#000000;fill-opacity:1;fill-rule:nonzero;stroke:none"
               d="m 0,0 c 0,0 2.517,0.374 2.517,4.023 0,3.636 -3.554,4.546 -5.318,4.546 H -12.918 V -8.108 h 3.121 V 6.048 h 6.261 c 0.5,0 2.956,0.164 2.956,-2.393 0,-2.66 -2.886,-2.41 -2.886,-2.41 h -3.91 v -2.521 h 3.87 c 1.11,0 2.674,0.02 2.674,-2.547 v -4.285 h 3.078 v 4.61 C 2.246,-0.521 0,0 0,0" />
          </g>
          <g
             transform="translate(425.1782,786.1234)"
             id="g2598">
            <path
               inkscape:connector-curvature="0"
               id="path2600"
               style="fill:#000000;fill-opacity:1;fill-rule:nonzero;stroke:none"
               d="m 0,0 v -10.947 c 0,-2.126 -0.465,-3.438 -4.864,-3.438 -4.395,0 -4.969,1.237 -4.969,3.438 V 0 h -3.142 v -11.346 c 0,-1.85 0.099,-5.677 8.017,-5.677 7.93,0 8.084,3.583 8.084,5.677 L 3.126,0 Z" />
          </g>
          <g
             transform="translate(436.0732,779.3942)"
             id="g2602">
            <path
               inkscape:connector-curvature="0"
               id="path2604"
               style="fill:#000000;fill-opacity:1;fill-rule:nonzero;stroke:none"
               d="m 0,0 c -1.76,0.19 -2.489,0.707 -2.489,1.844 0,1.372 0.561,2.601 4.652,2.601 4.217,0 4.76,-1.122 4.76,-3.274 h 3.012 c 0,1.808 -0.084,5.845 -7.679,5.845 -7.38,0 -7.736,-3.56 -7.736,-5.557 0,-1.999 1.524,-3.501 4.278,-3.811 5.249,-0.591 8.603,-0.435 8.603,-2.566 0,-1.53 -0.455,-2.769 -4.829,-2.769 -4.374,0 -4.945,1.128 -4.945,3.299 H -5.48 c 0,-1.833 0.085,-5.906 7.957,-5.906 7.875,0 8.042,3.971 8.042,5.519 0,4.52 -5.86,4.283 -10.519,4.775" />
          </g>
          <g
             transform="translate(360.3048,769.0942)"
             id="g2606">
            <path
               inkscape:connector-curvature="0"
               id="path2608"
               style="fill:#000000;fill-opacity:1;fill-rule:nonzero;stroke:none"
               d="m 0,0 c 7.915,0 7.905,4.075 7.905,5.739 v 11.29 H 0.511 v -2.48 H 4.782 V 6.143 c 0,-2.469 -1.027,-3.538 -4.825,-3.538 -4.732,0 -4.747,1.746 -4.747,4.704 H -7.664 C -7.664,4.585 -8.299,0 0,0" />
          </g>
        </g>
      </g>
      <g
         transform="matrix(0.35277777,0,0,-0.35277777,222.6563,132.87268)"
         id="g2610">
        <path
           inkscape:connector-curvature="0"
           id="path2612"
           style="fill:#000000;fill-opacity:1;fill-rule:nonzero;stroke:none"
           d="M 0,0 V -14.161 H 3.13 V 0 H 9.606 V 2.522 H -6.462 V 0 Z" />
      </g>
      <g
         transform="matrix(0.35277777,0,0,-0.35277777,247.78339,132.87268)"
         id="g2614">
        <path
           inkscape:connector-curvature="0"
           id="path2616"
           style="fill:#000000;fill-opacity:1;fill-rule:nonzero;stroke:none"
           d="M 0,0 V -14.161 H 3.128 V 0 H 9.599 V 2.522 H -6.475 V 0 Z" />
      </g>
      <g
         transform="matrix(0.35277777,0,0,-0.35277777,262.57067,135.6241)"
         id="g2618">
        <path
           inkscape:connector-curvature="0"
           id="path2620"
           style="fill:#000000;fill-opacity:1;fill-rule:nonzero;stroke:none"
           d="M 0,0 2.829,7.708 5.652,0 Z m 6.649,-2.656 1.38,-3.698 h 3.518 L 4.933,10.294 H 0.749 L -5.894,-6.354 h 3.556 l 1.368,3.698 z" />
      </g>
      <path
         inkscape:connector-curvature="0"
         id="path2622"
         style="fill:#000000;fill-opacity:1;fill-rule:nonzero;stroke:none;stroke-width:0.35277775"
         d="m 274.78648,131.99247 h -1.08656 v 5.87445 h 1.08656 z m 4.33846,5.87339 -2.86103,-3.02648 2.72556,-2.84691 h -1.43227 l -2.63772,2.84691 2.73932,3.02648 z" />
      <g
         transform="matrix(0.35277777,0,0,-0.35277777,270.94342,137.86579)"
         id="g2624">
        <path
           inkscape:connector-curvature="0"
           id="path2626"
           style="fill:#000000;fill-opacity:1;fill-rule:nonzero;stroke:none"
           d="M 0,0 H 4.846 V 16.648 H 1.791 V 2.866 l -7.794,13.782 h -4.852 V 0 h 3.087 v 13.682 z" />
      </g>
      <g
         id="g2628"
         transform="matrix(0.35277777,0,0,-0.35277777,87.643513,409.30965)">
        <g
           clip-path="url(#clipPath2634)"
           id="g2630">
          <g
             transform="translate(344.7089,778.6239)"
             id="g2636">
            <path
               inkscape:connector-curvature="0"
               id="path2638"
               style="fill:#009ee3;fill-opacity:1;fill-rule:nonzero;stroke:none"
               d="m 0,0 c 0,6.552 -5.527,11.867 -12.343,11.867 -4.677,0 -8.748,-2.497 -10.842,-6.174 0.366,0.028 0.741,0.045 1.116,0.045 6.819,0 12.346,-5.312 12.346,-11.869 0,-2.072 -0.546,-4.008 -1.509,-5.7 C -4.94,-11.293 0,-6.203 0,0" />
          </g>
          <g
             transform="translate(331.5684,765.127)"
             id="g2640">
            <path
               inkscape:connector-curvature="0"
               id="path2642"
               style="fill:#009ee3;fill-opacity:1;fill-rule:nonzero;stroke:none"
               d="m 0,0 c -0.135,-0.097 -0.285,-0.172 -0.432,-0.251 -0.35,-0.178 -0.709,-0.333 -1.091,-0.463 -0.513,-0.176 -1.045,-0.29 -1.566,-0.36 -2.302,-0.281 -4.572,0.469 -6.158,1.948 -0.72,0.669 -1.29,1.489 -1.659,2.427 -1.109,2.836 -0.035,5.916 2.429,7.683 -3.748,-1.334 -5.711,-5.27 -4.472,-8.882 -0.098,0.138 -0.186,0.279 -0.276,0.418 -2.313,3.897 -0.975,8.863 2.996,11.093 3.799,2.125 8.625,0.977 11.07,-2.532 -0.019,0.025 -0.031,0.05 -0.046,0.073 -2.831,4.777 -9.077,6.431 -13.936,3.704 -2.845,-1.587 -4.581,-4.318 -4.977,-7.26 -0.232,0.783 -0.357,1.611 -0.357,2.468 0,4.665 3.671,8.516 8.431,9.124 -6.28,-0.562 -11.183,-5.63 -11.183,-11.807 0,-6.548 5.526,-11.861 12.334,-11.861 4.68,0 8.745,2.504 10.838,6.197 C 1.421,1.046 0.768,0.458 0,0" />
          </g>
          <g
             transform="translate(469.9593,766.0105)"
             id="g2644">
            <path
               inkscape:connector-curvature="0"
               id="path2646"
               style="fill:#000000;fill-opacity:1;fill-rule:nonzero;stroke:none"
               d="m 0,0 v -3.026 c 2.186,-0.561 4.234,-1.501 6.181,-2.6 L 5.326,-7.321 C 4.208,-6.589 1.457,-5.125 0,-4.747 v -6.016 H -1.796 V 0 Z" />
          </g>
          <g
             transform="translate(488.8179,762.667)"
             id="g2648">
            <path
               inkscape:connector-curvature="0"
               id="path2650"
               style="fill:#000000;fill-opacity:1;fill-rule:nonzero;stroke:none"
               d="m 0,0 c -0.428,-3.819 -1.722,-6.723 -8.305,-7.272 l -0.489,1.512 c 5.526,0.245 6.406,2.441 6.809,4.235 h -8.279 V 0 Z m -0.73,1.367 h -8.643 v 1.525 h 8.643 z" />
          </g>
          <g
             transform="translate(491.3059,756.7002)"
             id="g2652">
            <path
               inkscape:connector-curvature="0"
               id="path2654"
               style="fill:#000000;fill-opacity:1;fill-rule:nonzero;stroke:none"
               d="M 0,0 C 2.815,1.049 5.691,3.526 7.073,7.04 H 0.73 V 8.602 H 9.322 C 9.158,7.81 8.781,5.979 7.011,3.539 8.543,2.392 9.887,1.269 11.193,0.012 L 9.774,-1.343 C 8.618,-0.036 7.35,1.171 6.005,2.306 4.611,0.745 2.953,-0.574 0.992,-1.355 Z" />
          </g>
          <g
             transform="translate(509.5369,766.0105)"
             id="g2656">
            <path
               inkscape:connector-curvature="0"
               id="path2658"
               style="fill:#000000;fill-opacity:1;fill-rule:nonzero;stroke:none"
               d="m 0,0 v -3.026 c 2.185,-0.561 4.233,-1.501 6.18,-2.6 L 5.326,-7.321 C 4.208,-6.589 1.456,-5.125 0,-4.747 v -6.016 H -1.797 V 0 Z" />
          </g>
          <g
             transform="translate(522.3018,755.7847)"
             id="g2660">
            <path
               inkscape:connector-curvature="0"
               id="path2662"
               style="fill:#000000;fill-opacity:1;fill-rule:nonzero;stroke:none"
               d="m 0,0 c -0.83,-0.158 -3.14,-0.536 -4.761,-0.695 l -0.176,1.427 c 0.402,0.036 0.855,0.062 2.098,0.208 V 4.1 h -2.048 v 1.343 h 2.048 v 0.89 H -3.982 V 7.041 C -4.234,6.822 -4.373,6.712 -4.649,6.517 L -5.1,8.042 c 1.079,0.732 1.682,1.44 2.273,2.562 h 1.533 C -0.716,9.603 -0.264,9.079 0.652,8.457 L -0.213,7.212 C -0.302,7.273 -0.339,7.31 -0.378,7.334 V 6.333 h -1.13 V 5.443 H 0.327 V 4.1 H -1.508 V 1.111 c 0.277,0.036 1.684,0.244 1.835,0.268 L 0.351,0.659 C 0.464,0.671 0.54,0.671 0.753,0.708 v 9.603 H 6.507 V 4.661 H 4.271 C 4.321,4.307 4.398,3.905 4.635,3.294 5.376,3.772 5.765,4.186 6.029,4.479 L 6.934,3.32 C 6.708,3.112 6.218,2.66 5.25,2.124 5.879,1.208 6.583,0.695 7.098,0.329 L 6.129,-0.988 c -0.714,0.5 -2.637,1.83 -3.214,5.649 H 2.236 V 0.94 C 3.165,1.111 3.518,1.183 3.982,1.294 V -0.098 C 2.224,-0.536 0.678,-0.756 0.1,-0.841 Z M -3.619,3.6 C -3.492,3.161 -3.305,2.209 -3.241,1.501 L -4.396,1.281 C -4.41,2.27 -4.674,3.222 -4.723,3.404 Z m 2.928,4.014 C -1.395,8.274 -1.772,8.859 -2.047,9.311 -2.287,8.92 -2.55,8.457 -3.379,7.614 Z M 0.176,3.539 C 0.088,2.868 -0.012,2.27 -0.201,1.623 l -0.968,0.183 c 0.176,0.769 0.239,1.16 0.289,1.867 z m 2.06,4.503 H 5.025 V 9.006 H 2.236 Z m 0,-2.123 h 2.789 v 1 H 2.236 Z" />
          </g>
          <g
             transform="translate(534.4259,766.0226)"
             id="g2664">
            <path
               inkscape:connector-curvature="0"
               id="path2666"
               style="fill:#000000;fill-opacity:1;fill-rule:nonzero;stroke:none"
               d="m 0,0 c -0.464,-0.939 -1.607,-2.513 -3.203,-3.49 l -0.804,1.489 c 0.465,0.256 1.557,0.866 2.6,2.514 z m 0.378,-2.672 c -0.19,-0.403 -0.491,-1.087 -1.358,-2.22 v -6.26 h -1.583 v 4.526 c -0.464,-0.415 -0.64,-0.524 -0.904,-0.695 l -0.515,1.769 c 1.319,0.891 2.324,2.136 3.065,3.526 z M 8.015,-3.465 V -4.942 H 6.18 v -5.076 c 0,-0.83 -0.314,-1.123 -1.256,-1.123 H 2.411 L 2.135,-9.53 h 2.047 c 0.291,0 0.403,0.048 0.403,0.354 v 4.234 H 0.289 v 1.477 z M 7.539,-1.562 H 0.805 v 1.465 h 6.734 z" />
          </g>
          <g
             transform="translate(458.2761,754.9733)"
             id="g2668">
            <path
               inkscape:connector-curvature="0"
               id="path2670"
               style="fill:#000000;fill-opacity:1;fill-rule:nonzero;stroke:none"
               d="m 0,0 c 5.084,0 5.076,2.63 5.076,3.702 v 7.294 H 0.328 V 9.392 H 3.072 V 3.968 c 0,-1.598 -0.661,-2.291 -3.099,-2.291 -3.044,0 -3.056,1.131 -3.056,3.042 H -4.929 C -4.929,2.958 -5.338,0 0,0" />
          </g>
        </g>
      </g>
    </g>
  </g>
</svg>
